<svg enable-background="new 0 0 100 100" height="100" viewBox="0 0 100 100" width="100" xmlns="http://www.w3.org/2000/svg"><g fill="#fff"><path d="m22.5 19.7h20c1.4 0 2.5 1.1 2.5 2.5v54.9c0 1.4-1.1 2.5-2.5 2.5h-20c-1.4 0-2.5-1.1-2.5-2.5v-54.9c0-1.4 1.1-2.5 2.5-2.5z"/><path d="m57.5 19.6h20c1.4 0 2.5 1.1 2.5 2.5v19.9c0 1.4-1.1 2.5-2.5 2.5h-20c-1.4 0-2.5-1.1-2.5-2.5v-19.9c0-1.4 1.1-2.5 2.5-2.5z"/><path d="m57.5 54.6h20c1.4 0 2.5 1.1 2.5 2.5v19.9c0 1.4-1.1 2.5-2.5 2.5h-20c-1.4 0-2.5-1.1-2.5-2.5v-19.9c0-1.3 1.1-2.5 2.5-2.5z"/></g></svg>